<svg xmlns="http://www.w3.org/2000/svg" xmlns:xlink="http://www.w3.org/1999/xlink" width="19.351" height="19.515" viewBox="0 0 19.351 19.515">
  <defs>
    <clipPath id="clip-path">
      <path id="Path_474" data-name="Path 474" d="M10217.981-12928.033h-9.557v19.4s19.351.258,19.351,0v-15.295l-9.794,5.853Z" transform="translate(-9162 13094)" fill="none" stroke="#707070" stroke-width="1"/>
    </clipPath>
  </defs>
  <g id="Group_943" data-name="Group 943" transform="translate(-1213.546 -216.87)">
    <g id="Mask_Group_8" data-name="Mask Group 8" transform="translate(167.121 50.903)" clip-path="url(#clip-path)">
      <path id="Path_478" data-name="Path 478" d="M-9298.122,13086.34a9.247,9.247,0,0,1,9.245-9.242,9.245,9.245,0,0,1,9.245,9.242,9.246,9.246,0,0,1-9.245,9.248A9.248,9.248,0,0,1-9298.122,13086.34Zm2.734,0a6.508,6.508,0,0,0,6.511,6.508,6.508,6.508,0,0,0,6.511-6.508,6.509,6.509,0,0,0-6.511-6.511A6.509,6.509,0,0,0-9295.388,13086.343Z" transform="translate(10344.981 -12910.58)" fill="#1a1a1a"/>
    </g>
  </g>
</svg>
